<svg id="Camada_1" data-name="Camada 1" xmlns="http://www.w3.org/2000/svg" viewBox="0 0 293.64 253.03"><defs><style>.cls-1{fill:#FFFFFF;}.cls-2{fill:#FFFFFF;}</style></defs><title>MIAUJUDA_logo</title><path class="cls-1" d="M589.26,392.09c2.07-3.12,6.9-8.67,9.76-15.1,4.54-10.24,8.87-20.82,11.23-31.71,2-9.47,6.55-16.32,12.56-23.68,12.16-14.91,25.73-24.41,46-22.54,4.75.44,9.71-1.28,14.63-2.48-3.56-.25-7.32-4-16.06-11.46-14.4-12.3-31.46-17.48-52-18.12-31.38,1.4-56.73,16.29-70.49,46.68C530.72,345,535,375.53,558.74,400.5q10.23,10.74,20.59,21.32c3.89-6.45,7.3-13.26,10.84-19.92C591.08,400.2,589.83,397.34,589.26,392.09Z" transform="translate(-536.77 -267)"/><path class="cls-1" d="M700.13,285.54c-6.94,5.61-10.7,9.13-13.75,10.46H699.8c3.5,2.84,7.74,5.12,10.38,8.61,12.6,16.64,29.41,20.08,49.23,19,10.23-.55,20.73,3.77,31.11,5.89v4c-1.89,3.92-3.82,7.83-5.66,11.78-1.47,3.15-2.07,7.15-4.39,9.37-8.61,8.25-18,15.34-31,14.84-2.42-.09-4.91,1.45-7.37,2.23,8.36,3,16.9,3,24.28,6,8.07,3.23,13.8,10.11,16.38,20.88l-10.65-4.79c-5.22,7.17-10.45,14-20.53,13-11.86-1.13-24.11-5-34.25,5.32-.69.71-2.57.57-3.83.38-5.75-.86-8.27,2.69-8.08,7.31.24,5.62,1.79,11.23,3.11,16.75.75,3.11,4,7,3,8.89-6.47,12.21.69,23.18,2.21,34.6.43,3.23,3.08,7.59,1.81,9.37a22.6,22.6,0,0,0-4,9.49q46.36-46.35,92.68-92.74c22.21-22.3,31.34-48.84,23.19-79.7C812.62,270.17,745.58,248.72,700.13,285.54Z" transform="translate(-536.77 -267)"/><path class="cls-2" d="M686.38,296H686c-.86.16-1.73.36-2.6.58A6.32,6.32,0,0,0,686.38,296Z" transform="translate(-536.77 -267)"/><path class="cls-1" d="M676.39,519.17c.31.3.61.59.91.86.08-.1.15-.2.23-.29,11.65-15.16,17.66-32.34,19-51.49.82-11.71-3.55-21.42-8.37-31.48-3.42-7.12-5.62-14.89-7.77-22.54-1.12-4,.22-7.19,5.36-7.9,4.18-.59,8.16-2.58,12.33-3.25,12.79-2.05,19.25-11.65,25.28-21.33,4.89-7.84,2.19-13.83-6.07-18.11-3.7-1.91-7.83-4.41-9.91-7.78-7.35-11.92-18.47-17.05-31.5-17.62-11-.49-18.15-6.29-24.7-13.85-2.93-3.37-5.71-6.87-8.89-10.71-6.52,9.53-7.91,19.54-5.65,29.94,1.33,6.1,0,10.09-5,14.13C619,368,617.16,382.88,615.93,397.84c-.76,9.26-1.66,18.51-2.37,27.78-.53,7-4.67,10.54-11.15,11-2.67.2-5.36.35-8,.48C621.55,464.63,649.14,491.74,676.39,519.17Z" transform="translate(-536.77 -267)"/></svg>