<svg xmlns="http://www.w3.org/2000/svg" viewBox="0 0 512 490.19"><defs><style>.cls-1{fill:#010101;}</style></defs><title>adopter</title><g id="Camada_2" data-name="Camada 2"><g id="Camada_1-2" data-name="Camada 1"><path class="cls-1" d="M473.53,291.47A37.68,37.68,0,0,0,458,294.93a38,38,0,0,0-47.51-10.62l-.53.29-15.72,9.33a37.94,37.94,0,0,0-46.69-9.62l-.62.36-60.19,36.86c-13.59-4-28.68-8.42-43.27-12.56-15.38-4.36-30.17-8.42-42-11.41-5.94-1.5-11.13-2.73-15.38-3.6-2.13-.45-4-.79-5.69-1a32.64,32.64,0,0,0-4.72-.44,29.31,29.31,0,0,0-3.52.27c-4.44.58-10.74,1.93-18.18,3.68-15.19,3.57-34.58,8.76-45.3,11.68V290a23,23,0,0,0-22.88-22.88H22.88A23,23,0,0,0,0,290V467.3a23,23,0,0,0,22.88,22.89H85.81a23,23,0,0,0,22.88-22.89V453.53c13.58,3,43.73,9.47,75.5,16,21.5,4.41,43.71,8.82,62.05,12.15,9.18,1.67,17.39,3.06,24.11,4A123.84,123.84,0,0,0,286,487.33a33.56,33.56,0,0,0,8.9-1.42,123.14,123.14,0,0,0,19.63-8c25.86-12.61,63-36.23,98-59.6s67.7-46.4,83.73-57.44c10-6.92,15.67-18.61,15.67-31A38.49,38.49,0,0,0,473.53,291.47ZM91.53,467.3A5.8,5.8,0,0,1,85.81,473H22.88a5.8,5.8,0,0,1-5.72-5.72V290a5.8,5.8,0,0,1,5.72-5.72H85.81A5.8,5.8,0,0,1,91.53,290ZM486.59,346.78c-19.71,13.58-63.82,44.73-106.52,72.46-21.33,13.86-42.31,26.85-59.51,36.27a242.93,242.93,0,0,1-22.39,11.05,70.66,70.66,0,0,1-7.86,2.82,18.18,18.18,0,0,1-4.27.79,116.6,116.6,0,0,1-13.2-1.43c-22.54-3.3-64.72-11.73-101-19.31-18.18-3.79-34.93-7.37-47.13-10l-16-3.46V325.89l6.51-1.78c9-2.45,22.84-6.13,35.22-9.18,6.19-1.52,12-2.88,16.67-3.85,2.31-.48,4.33-.87,5.88-1.11a23.7,23.7,0,0,1,2.72-.33s.92.05,2.15.24c4.73.71,14.44,3,26.27,6.08,35.63,9.31,91.82,26.13,114.52,33,7.85,2.37,15,5.94,19.63,10.27a22.74,22.74,0,0,1,5.29,7,19.8,19.8,0,0,1,1.87,8.56,24.28,24.28,0,0,1-24.09,24.27l-22.15-2.17-75.57-9.7a8.58,8.58,0,1,0-2.19,17l75.82,9.73,23.46,2.3h.42a41.47,41.47,0,0,0,41.46-41.45,36.81,36.81,0,0,0-3.53-15.92A43,43,0,0,0,344,342a74.89,74.89,0,0,0-20.36-9.4c-4-1.21-9-2.73-14.73-4.45l46.57-28.53a20.66,20.66,0,0,1,23.73,3.29l-23,13.64A8.58,8.58,0,0,0,365,331.28l53.4-31.67a20.73,20.73,0,0,1,24.54,4l-62.19,36.88a8.58,8.58,0,1,0,8.77,14.76l67.24-39.89a8.73,8.73,0,0,0,1.95-.54,8.51,8.51,0,0,0,3.37-2.61l2.09-1.25a21.18,21.18,0,0,1,30.73,19C494.83,337.13,491.54,343.42,486.59,346.78Z"/><path class="cls-1" d="M371.61,20.35a69,69,0,0,0-97.61,0l-6.81,6.82-6.93-6.93a68.94,68.94,0,1,0-97.5,97.5L262,217a7.09,7.09,0,0,0,10,.05L371.5,118a69.14,69.14,0,0,0,.11-97.65Zm-10.15,87.56L267,202l-94.22-94.23a54.7,54.7,0,1,1,77.36-77.36l11.94,11.94a7.12,7.12,0,0,0,10.1,0l11.84-11.84a54.74,54.74,0,0,1,77.41,77.42Z"/></g></g></svg>