<svg id="Camada_1" data-name="Camada 1" xmlns="http://www.w3.org/2000/svg" viewBox="0 0 850 197.53"><defs><style>.cls-1{fill:#7092bf;}.cls-2{fill:#959aa0;}.cls-3{fill:#fcd24c;}</style></defs><title>MIAUJUDA</title><path class="cls-1" d="M452.62,450.57a16,16,0,0,1,1.88,5.34,62.32,62.32,0,0,1,.29,6.92V572.56q0,13.65-7.51,16a32.1,32.1,0,0,1-9.49,1.19,33.37,33.37,0,0,1-9.1-1,15.52,15.52,0,0,1-5.14-2.38,9,9,0,0,1-2.77-3.95,39.31,39.31,0,0,1-1-10.28V505.93q-4.95,6.13-14.44,19.48T393.3,542.12q-2.57,3.36-3.56,4.64a18.77,18.77,0,0,1-4.84,3.56,16.54,16.54,0,0,1-16.41.2,18.07,18.07,0,0,1-5.24-4l-1.59-2.18q-3.95-4.93-15.62-21.06t-12.65-17.3v66.63a56.91,56.91,0,0,1-.3,6.83,13.88,13.88,0,0,1-1.88,5q-3,5.34-15.42,5.34-12.06,0-15-5.34a13.84,13.84,0,0,1-1.88-5.14,61.88,61.88,0,0,1-.3-7.12V462.43a56.83,56.83,0,0,1,.3-6.82,15.62,15.62,0,0,1,1.88-5.24q3-5.14,15.42-5.14a29.06,29.06,0,0,1,9.19,1.29q3.86,1.28,5,2.66l1.19,1.19,44.88,58.92q33.61-44.49,44.89-58.72,3.36-5.34,15.91-5.34T452.62,450.57Z" transform="translate(-298.59 -437.12)"/><path class="cls-1" d="M503.14,466.49a8.39,8.39,0,0,1-5.24,4.05,42.49,42.49,0,0,1-20,0,8.24,8.24,0,0,1-5.24-4.15,16.8,16.8,0,0,1-1.78-5.24,77.78,77.78,0,0,1,0-13.65,15.84,15.84,0,0,1,1.68-5q2.76-5.34,15.42-5.34,12.45,0,15,5.34a16.07,16.07,0,0,1,1.88,5.24,80.46,80.46,0,0,1,0,13.65A16.26,16.26,0,0,1,503.14,466.49Zm-32.53,36.67a56.83,56.83,0,0,1,.3-6.82,17.94,17.94,0,0,1,1.68-5.24Q475.35,486,488,486q9.5,0,13.45,3.36,3.35,2.78,3.55,8.51c.13,1.31.2,3.23.2,5.73v69.2a59.3,59.3,0,0,1-.29,6.82,15.92,15.92,0,0,1-1.88,5.24Q500.46,590,487.81,590q-12.45,0-15.22-5.33a18,18,0,0,1-1.68-5.14,56.55,56.55,0,0,1-.3-6.93Z" transform="translate(-298.59 -437.12)"/><path class="cls-2" d="M588.65,496.84q1.19-11.07,15.62-11.08,7.71,0,11.47,1.19A8.33,8.33,0,0,1,621,491.1a17.06,17.06,0,0,1,1.78,5.24,59.54,59.54,0,0,1,.29,6.82v69.21a59.42,59.42,0,0,1-.29,6.82,18.47,18.47,0,0,1-1.68,5.24q-2.77,5.15-13.55,5.14T593.1,586.9a10.65,10.65,0,0,1-4.25-7.81q-7.32,10.49-24.42,10.48T532.69,574q-14.62-15.62-14.63-36.28t14.73-36.19Q547.52,486,565.12,486a30.85,30.85,0,0,1,12.26,2.37q5.54,2.39,7.71,4.45A27.56,27.56,0,0,1,588.65,496.84Zm-36,41.12a16.4,16.4,0,0,0,5.14,11.77A16.82,16.82,0,0,0,570.26,555a15.72,15.72,0,0,0,12.16-5.34,17.14,17.14,0,0,0,4.85-11.77,18.3,18.3,0,0,0-4.65-12,15.43,15.43,0,0,0-12.46-5.53,16,16,0,0,0-12.65,5.53A18,18,0,0,0,552.66,538Z" transform="translate(-298.59 -437.12)"/><path class="cls-2" d="M685.14,589.57A42,42,0,0,1,652,574.44q-13.15-15.12-13.15-36.87V503a59,59,0,0,1,.29-6.92,18.56,18.56,0,0,1,1.68-5.14q2.77-5.34,15.43-5.34,13.83,0,16.21,7.51,1.18,3.17,1.19,10.08v34.6q0,8.12,4.64,12.66T690.77,555q7.8,0,12.65-4.75t4.85-12.46v-35a56.72,56.72,0,0,1,.3-6.82,15.65,15.65,0,0,1,1.87-5.24q2.58-5.15,15.23-5.14,12.45,0,15.22,5.34a18.37,18.37,0,0,1,1.68,5.24,56.72,56.72,0,0,1,.3,6.82v70a54.41,54.41,0,0,1-.3,6.62,14.19,14.19,0,0,1-1.87,5q-3,5.13-15.23,5.14-12.06,0-14.83-4.75a15.68,15.68,0,0,1-2-8.1,19.92,19.92,0,0,1-3.55,4,50.19,50.19,0,0,1-5.34,4.35A26.43,26.43,0,0,1,685.14,589.57Z" transform="translate(-298.59 -437.12)"/><path class="cls-3" d="M766.1,486.36a32.71,32.71,0,0,1,9.79-1.19,31.76,31.76,0,0,1,9.69,1.19,8.33,8.33,0,0,1,5,4.05,16,16,0,0,1,1.78,5.14,56.83,56.83,0,0,1,.3,6.82v81.46q0,23.14-16,37t-35.19,13.84a54.45,54.45,0,0,1-6.73-.3,16.12,16.12,0,0,1-4.94-1.68q-5.15-2.76-5.14-14.43t4.25-14.63q4.26-3,11.47-3a21.41,21.41,0,0,0,12.75-3.95q5.54-4,5.54-14.24V501q0-6.92,1.88-10.18A9.53,9.53,0,0,1,766.1,486.36Zm19.18-16.12a35.29,35.29,0,0,1-9.79,1.09,31.34,31.34,0,0,1-9.68-1.19,8.32,8.32,0,0,1-5-4.05A15.93,15.93,0,0,1,759,461a59.42,59.42,0,0,1-.29-6.82,56.72,56.72,0,0,1,.29-6.72,16.44,16.44,0,0,1,1.68-5q2.77-5.13,15.23-5.14,11.86,0,14.83,5.14a14.41,14.41,0,0,1,1.68,4.75,51.89,51.89,0,0,1,.3,6.52v1.19a51.78,51.78,0,0,1-.3,6.52,14.24,14.24,0,0,1-1.88,4.95A8.46,8.46,0,0,1,785.28,470.24Z" transform="translate(-298.59 -437.12)"/><path class="cls-3" d="M854.78,589.57q-20,0-33.12-15.13t-13.15-36.87V503a56.36,56.36,0,0,1,.3-6.92,17.91,17.91,0,0,1,1.68-5.14q2.76-5.34,15.42-5.34,13.85,0,16.21,7.51,1.18,3.17,1.19,10.08v34.6q0,8.12,4.65,12.66c3.09,3,7.25,4.55,12.45,4.55s9.43-1.58,12.66-4.75,4.84-7.31,4.84-12.46v-35a56.72,56.72,0,0,1,.3-6.82,15.69,15.69,0,0,1,1.88-5.24q2.56-5.15,15.22-5.14,12.47,0,15.23,5.34a18.37,18.37,0,0,1,1.68,5.24,59.42,59.42,0,0,1,.29,6.82v70a57,57,0,0,1-.29,6.62,14.23,14.23,0,0,1-1.88,5q-3,5.13-15.23,5.14-12.06,0-14.82-4.75a15.68,15.68,0,0,1-2-8.1,20.4,20.4,0,0,1-3.56,4,50.19,50.19,0,0,1-5.34,4.35A26.41,26.41,0,0,1,854.78,589.57Z" transform="translate(-298.59 -437.12)"/><path class="cls-3" d="M998.22,442.36a8.43,8.43,0,0,1,5.24-4.05,42.53,42.53,0,0,1,20,0,8.31,8.31,0,0,1,5.23,4.15,16.8,16.8,0,0,1,1.78,5.24,56.83,56.83,0,0,1,.3,6.82v118a56.91,56.91,0,0,1-.3,6.83,13.88,13.88,0,0,1-1.88,5q-3,5.34-16.7,5.34t-15.33-9.69q-8.29,9.48-23.13,9.49-17.79,0-32.42-15.52t-14.64-36.19q0-20.65,14.73-36.28T973.41,486q14.63,0,22.74,9.89V454.33a56.91,56.91,0,0,1,.3-6.83A16,16,0,0,1,998.22,442.36ZM966.1,549.83a16.62,16.62,0,0,0,12.45,5.34,15.72,15.72,0,0,0,12.16-5.34,17.14,17.14,0,0,0,4.85-11.77,18.25,18.25,0,0,0-4.65-12q-4.65-5.54-12.56-5.54A16,16,0,0,0,965.7,526,17.82,17.82,0,0,0,961,538,16.75,16.75,0,0,0,966.1,549.83Z" transform="translate(-298.59 -437.12)"/><path class="cls-3" d="M1114.19,496.84q1.18-11.07,15.62-11.08,7.71,0,11.47,1.19a8.28,8.28,0,0,1,5.23,4.15,16.8,16.8,0,0,1,1.78,5.24,56.83,56.83,0,0,1,.3,6.82v69.21a56.72,56.72,0,0,1-.3,6.82,18.15,18.15,0,0,1-1.68,5.24q-2.76,5.15-13.54,5.14t-14.43-2.67a10.69,10.69,0,0,1-4.26-7.81q-7.31,10.49-24.41,10.48T1058.23,574q-14.62-15.62-14.63-36.28t14.73-36.19Q1073.06,486,1090.66,486a30.85,30.85,0,0,1,12.26,2.37q5.53,2.39,7.71,4.45A28.16,28.16,0,0,1,1114.19,496.84Zm-36,41.12a16.4,16.4,0,0,0,5.14,11.77A16.82,16.82,0,0,0,1095.8,555a15.74,15.74,0,0,0,12.16-5.34,17.13,17.13,0,0,0,4.84-11.77,18.29,18.29,0,0,0-4.64-12,15.43,15.43,0,0,0-12.46-5.53,16,16,0,0,0-12.65,5.53A18,18,0,0,0,1078.2,538Z" transform="translate(-298.59 -437.12)"/></svg>